<svg xmlns="http://www.w3.org/2000/svg"><symbol id="shopping-cart" viewBox="0 0 24 18"><path d="M17.55 3.09l-2.49 5.5a.82.82 0 0 1-.7.49l-7.12.47.41 1.18h7.76a1.65 1.65 0 1 1-1.65 1.65h-7.7a1.65 1.65 0 1 1-1.65-1.65H5.9L2.72 1.65H.83A.83.83 0 1 1 .83 0h2.48a.83.83 0 0 1 .78.55l.48 1.38h12.22a.83.83 0 0 1 .83.82 1.28 1.28 0 0 1-.07.34zm-12.4.49l1.52 4.36 7.09-.48 1.75-3.88z"/></symbol><symbol id="search" viewBox="0 0 24 18"><path d="M17.13 14.8a1.65 1.65 0 1 1-2.34 2.33L10 12.29A6.62 6.62 0 1 1 12.29 10zM6.61 1.66a5 5 0 1 0 5 5 5 5 0 0 0-5-5z"/></symbol><symbol id="users" viewBox="0 0 31.94 22.53"><path fill="#ffffff" d="M32 21.53a1 1 0 0 1-1 1h-7.46a1.25 1.25 0 0 0 1-1.21s0-4.5-3.3-6.14a5.77 5.77 0 0 0-2.24-.73V12.5a3.72 3.72 0 0 1-1-2.43c-.48.13-.64-.57-.67-1s-.28-1.78.31-1.66a11.8 11.8 0 0 1-.16-2.14A3.88 3.88 0 0 1 21.35 2c2.65.11 3.7 1.69 3.84 3.2A11.92 11.92 0 0 1 25 7.39c.59-.12.34 1.23.3 1.66s-.19 1.15-.67 1a3.63 3.63 0 0 1-1 2.43v1.94s.49.28 2.55 1.13 1.41.22 3.08 1c2.65 1.31 2.65 4.92 2.65 4.92zm-15-6.66c2.27.94 1.56.24 3.4 1.15 2.91 1.44 2.91 5.42 2.91 5.42a1.09 1.09 0 0 1-1.09 1.09H1.09A1.09 1.09 0 0 1 0 21.44s0-4 2.91-5.42c1.85-.91 1.13-.17 3.4-1.11a23.47 23.47 0 0 0 2.8-1.26V11.5A4.07 4.07 0 0 1 8 8.83c-.53.15-.7-.62-.73-1.11s-.31-2 .34-1.83a11.68 11.68 0 0 1-.18-2.36A4.27 4.27 0 0 1 11.69 0c2.91.12 4.07 1.86 4.23 3.52a14.36 14.36 0 0 1-.19 2.36c.64-.13.36 1.35.33 1.82s-.21 1.3-.74 1.12a4 4 0 0 1-1.11 2.67v2.14c.91.46 1.84.87 2.79 1.24z"/></symbol><symbol id="alarm" viewBox="0 0 32 30.5"><path fill="#95e1d3" d="M30.74 9.5a15.73 15.73 0 0 0-8.24-8.24 5.87 5.87 0 0 1 8.24 8.24zM30.5 16a14.46 14.46 0 0 1-4 9.94l2 2a1.5 1.5 0 0 1 0 2.1 1.53 1.53 0 0 1-1.05.43 1.51 1.51 0 0 1-1.05-.43l-2.18-2.18a14.47 14.47 0 0 1-16.57 0l-2.09 2.2A1.5 1.5 0 0 1 3.41 28l2-2A14.5 14.5 0 1 1 30.5 16zM16 4.5A11.5 11.5 0 1 0 27.5 16 11.5 11.5 0 0 0 16 4.5zm6 13h-6a1.5 1.5 0 0 1-1.5-1.5V8a1.5 1.5 0 0 1 3 0v6.5H22a1.5 1.5 0 0 1 0 3zM1.29 9.71a6 6 0 0 1 8.42-8.42 16 16 0 0 0-8.42 8.42z"/></symbol><symbol id="line" viewBox="0 0 32 32"><path fill="#95e1d3" d="M30.5 32h-29A1.5 1.5 0 0 1 0 30.5v-29A1.5 1.5 0 0 1 1.5 0h29A1.5 1.5 0 0 1 32 1.5v29a1.5 1.5 0 0 1-1.5 1.5zM29 3H3v26h26zM5.22 16.24l4-2.5a1.53 1.53 0 0 1 1.62 0l6.63 4.42 7.63-5.4a1.5 1.5 0 0 1 1.77 2.43l-8.5 6a1.47 1.47 0 0 1-1.74 0L10 16.8l-3.15 1.95A1.46 1.46 0 0 1 6 19a1.5 1.5 0 0 1-.78-2.78z"/></symbol><symbol id="computer" viewBox="0 0 31 28"><path fill="#95e1d3" d="M29.5 23H20v2.5l2 2v.5H9v-.5l2-2V23H1.5A1.5 1.5 0 0 1 0 21.5v-20A1.5 1.5 0 0 1 1.5 0h28A1.5 1.5 0 0 1 31 1.5v20a1.5 1.5 0 0 1-1.5 1.5zM29 2H2v17h27zM12.5 9a1.5 1.5 0 0 1 1.06.44l.94.94 2.94-2.94a1.5 1.5 0 1 1 2.19 2.05l-.07.07-4 4a1.49 1.49 0 0 1-2.12 0l-2-2A1.5 1.5 0 0 1 12.5 9z"/></symbol><symbol id="book" viewBox="0 0 32 32"><path fill="#95e1d3" d="M31.07 25.89l-14.48 6a1.51 1.51 0 0 1-1.18 0l-14.48-6A1.5 1.5 0 0 1 0 24.5v-23A1.5 1.5 0 0 1 1.5 0a1.56 1.56 0 0 1 .57.11L16 5.88 29.91.12A1.66 1.66 0 0 1 30.5 0 1.5 1.5 0 0 1 32 1.5v23a1.5 1.5 0 0 1-.93 1.39zM14.5 8.5L3 3.74V23.5l11.5 4.76zM29 3.74L17.5 8.5v19.76L29 23.5zm-9.12 6.89l5.5-2.5A1.68 1.68 0 0 1 26 8a1.5 1.5 0 0 1 .62 2.87l-5.5 2.5a1.68 1.68 0 0 1-.62.13 1.5 1.5 0 0 1-.62-2.87zm0 5.5l5.5-2.5a1.68 1.68 0 0 1 .62-.13 1.5 1.5 0 0 1 .62 2.87l-5.5 2.5a1.48 1.48 0 0 1-.62.14 1.5 1.5 0 0 1-.62-2.87zm0 5.5l5.5-2.5A1.68 1.68 0 0 1 26 19a1.5 1.5 0 0 1 .62 2.87l-5.5 2.5a1.68 1.68 0 0 1-.62.13 1.5 1.5 0 0 1-.62-2.87zM6 8a1.68 1.68 0 0 1 .62.13l5.5 2.5a1.5 1.5 0 0 1-.62 2.87 1.68 1.68 0 0 1-.62-.13l-5.5-2.5A1.5 1.5 0 0 1 6 8zm0 5.5a1.68 1.68 0 0 1 .62.13l5.5 2.5A1.5 1.5 0 0 1 11.5 19a1.48 1.48 0 0 1-.62-.14l-5.5-2.5A1.5 1.5 0 0 1 6 13.5zM6 19a1.68 1.68 0 0 1 .62.13l5.5 2.5a1.5 1.5 0 0 1-.62 2.87 1.68 1.68 0 0 1-.62-.13l-5.5-2.5A1.5 1.5 0 0 1 6 19z"/></symbol><symbol id="home" viewBox="0 0 32 30.5"><path fill="#95e1d3" d="M32 16a1.5 1.5 0 0 1-1.49 1.5 1.52 1.52 0 0 1-1-.41L16 3.66 2.56 17.07a1.55 1.55 0 0 1-1.06.43 1.5 1.5 0 0 1-1-2.58L14.92.46A1.54 1.54 0 0 1 16 0h.16a1.54 1.54 0 0 1 .94.47L23 6.38V5a1.5 1.5 0 0 1 3 0v4.38L31.6 15a1.49 1.49 0 0 1 .4 1zm-3 2.5V29a1.5 1.5 0 0 1-1.5 1.5h-3v-12h-6v12h-14A1.5 1.5 0 0 1 3 29V18.5l13-13zm-15.5 0h-6v6h6z"/></symbol><symbol id="image" viewBox="0 0 32 32"><path fill="#95e1d3" d="M30.5 32h-29A1.5 1.5 0 0 1 0 30.5v-29A1.5 1.5 0 0 1 1.5 0h29A1.5 1.5 0 0 1 32 1.5v29a1.5 1.5 0 0 1-1.5 1.5zM29 3H3v26h26zM6.5 4.5H12a1.5 1.5 0 0 1 0 3H7.5V12a1.5 1.5 0 0 1-3 0V4.5zM4.5 20a1.5 1.5 0 0 1 3 0v4.5H12a1.5 1.5 0 0 1 0 3H4.5zM20 4.5h7.5V12a1.5 1.5 0 0 1-3 0V7.5H20a1.5 1.5 0 0 1 0-3zm0 20h4.5V20a1.5 1.5 0 0 1 3 0v7.5H20a1.5 1.5 0 0 1 0-3z"/></symbol><symbol id="facebook" viewBox="0 0 7.5 16.03"><path fill="#95e1d3" d="M7.49 0v2.59s-1.9-.19-2.37.54A7.18 7.18 0 0 0 5 5.53h2.51C7.3 6.5 7.14 7.17 7 8H5v8H1.49V8H0V5.53h1.47c.07-1.84.1-3.67 1-4.6s2-.92 5-.92z"/></symbol><symbol id="twitter" viewBox="0 0 16 13"><path fill="#95e1d3" d="M10.88 0a3.34 3.34 0 0 1 2.6 1 5.66 5.66 0 0 0 1.68-.52c.13-.08.27-.15.41-.22A3.32 3.32 0 0 1 14.5 1.8a1.78 1.78 0 0 1-.36.25A6.33 6.33 0 0 0 16 1.56a5.44 5.44 0 0 1-1.11 1.28l-.52.41a9.33 9.33 0 0 1-.15 2.11 9.17 9.17 0 0 1-6.43 7.25 9.72 9.72 0 0 1-4.64.2 12.8 12.8 0 0 1-1.93-.63 10.11 10.11 0 0 1-.93-.48L0 11.52a5.27 5.27 0 0 0 1.05 0c.32-.05.64 0 .94-.1a7.38 7.38 0 0 0 2-.71 3.72 3.72 0 0 0 .89-.59 2.93 2.93 0 0 1-1-.17 3.27 3.27 0 0 1-2.08-2.1 3.14 3.14 0 0 0 1.46-.07 2.29 2.29 0 0 1-1.07-.43A3.16 3.16 0 0 1 .63 4.58l.37.16a3.2 3.2 0 0 0 .69.19.86.86 0 0 0 .45 0c-.16-.19-.43-.32-.6-.52a3.37 3.37 0 0 1-.74-3 3.82 3.82 0 0 1 .31-.8 2.52 2.52 0 0 0 .3.35 6.65 6.65 0 0 0 1 .93 9.73 9.73 0 0 0 4 1.94A6.13 6.13 0 0 0 7.89 4a3 3 0 0 1 0-1.54A3.22 3.22 0 0 1 9.76.29a3.65 3.65 0 0 1 .73-.23h.39z"/></symbol><symbol id="instagram" viewBox="0 0 16 16"><path fill="#95e1d3" d="M14 16H2a2 2 0 0 1-2-2V2a2 2 0 0 1 2-2h12a2 2 0 0 1 2 2v12a2 2 0 0 1-2 2zM8 4.91a3.09 3.09 0 0 0-2.81 1.8A1.59 1.59 0 0 0 5.1 7a.42.42 0 0 0 0 .1l-.1.16a1.91 1.91 0 0 0-.06.33.29.29 0 0 1 0 .09v.33a3.1 3.1 0 0 0 6.2 0 1.83 1.83 0 0 0 0-.33v-.09a1.91 1.91 0 0 0-.14-.33v-.31a1.67 1.67 0 0 0-.08-.2A3.11 3.11 0 0 0 8 4.91zm6.2-2.29a.8.8 0 0 0-.8-.8h-1.6a.8.8 0 0 0-.8.8v1.59a.8.8 0 0 0 .8.8h1.6a.8.8 0 0 0 .8-.8zm0 4.09h-1.47a4.9 4.9 0 0 1-9.45 2.6 4.78 4.78 0 0 1 0-2.6H1.8v6.7a.8.8 0 0 0 .8.8h10.8a.8.8 0 0 0 .8-.8v-6.7z"/></symbol><symbol id="pinterest" viewBox="0 0 12.25 16"><path fill="#95e1d3" d="M5.09 10.39c-.13.52-.26 1.07-.4 1.6a10.55 10.55 0 0 1-.45 1.55A7.79 7.79 0 0 1 3 15.74c-.36.42-.29.25-.39.23s-.09-.1-.11-.22a12.16 12.16 0 0 1 0-2.09 11.45 11.45 0 0 1 .37-2.17c.3-1.29.59-2.55.9-3.85a1.27 1.27 0 0 0 .06-.28 3.94 3.94 0 0 1-.3-1.06 3.27 3.27 0 0 1 .08-1.21A2 2 0 0 1 4.8 3.63a1.32 1.32 0 0 1 1.08.08 1.12 1.12 0 0 1 .54.78 2.77 2.77 0 0 1 0 1.18C6.21 6.43 6 7 5.79 7.74a2.18 2.18 0 0 0-.12 1.13 1.33 1.33 0 0 0 .53.8 1.52 1.52 0 0 0 1 .28A2.21 2.21 0 0 0 8.87 9a5.84 5.84 0 0 0 1.05-3 7.58 7.58 0 0 0 0-1.26 3.43 3.43 0 0 0-.7-1.95 3.26 3.26 0 0 0-1.53-1.02 5.15 5.15 0 0 0-2.34-.15 4.14 4.14 0 0 0-3.07 2.21A4.39 4.39 0 0 0 1.76 6a2.7 2.7 0 0 0 .42 1.56c.08.13.2.23.29.38a1.05 1.05 0 0 1-.08.72c-.07.27-.08.64-.39.64a1 1 0 0 1-.4-.15A3.2 3.2 0 0 1 .09 6.78a5.77 5.77 0 0 1 0-2A5.8 5.8 0 0 1 2.84.91 6.62 6.62 0 0 1 5.28.07C5.6 0 5.93 0 6.28 0A6.1 6.1 0 0 1 9 .49a5.4 5.4 0 0 1 1.86 1.35 5.69 5.69 0 0 1 1.4 3.49A8.23 8.23 0 0 1 12 6.81a5.78 5.78 0 0 1-2.4 4 4.41 4.41 0 0 1-1.1.51 3.88 3.88 0 0 1-1.4.17 2.82 2.82 0 0 1-1.23-.36 2.05 2.05 0 0 1-.82-.78z"/></symbol><symbol id="google-plus" viewBox="0 0 16 13.78"><path fill="#95e1d3" d="M13.5 3.47v2.44h-1V3.47H10v-1h2.5V0h1v2.47H16v1zM6.59 1A2.56 2.56 0 0 1 8 3.33a2.7 2.7 0 0 1-1.24 2.1 1.37 1.37 0 0 0-.81 1.18A2.66 2.66 0 0 0 7.06 7.9a2.87 2.87 0 0 1 1.44 2.7c0 1.49-1.44 3.17-4.12 3.17C2 13.77 0 12.65 0 11.15s1.87-3 4.21-3h.73A1.6 1.6 0 0 1 4.37 7a1.79 1.79 0 0 1 .21-.79h-.39A3 3 0 0 1 1 3.3v-.15C1 1.51 2.76 0 4.65 0h4.22l-.95 1H6.59zM4.66 8.55c-1.62 0-3.07 1-3.07 2.15s1.17 2.1 2.78 2.1c2.28 0 3.08-.82 3.08-2a1.59 1.59 0 0 0-.06-.43c-.17-.69-.8-1-1.68-1.63a3.43 3.43 0 0 0-1-.16zm1.82-5.2A2.83 2.83 0 0 0 4.12.79C3 .76 2.3 1.83 2.49 3.23a2.84 2.84 0 0 0 2.31 2.6c1.09.03 1.86-1.08 1.68-2.48z"/></symbol><symbol id="youtube" viewBox="0 0 16 11"><path fill="#95e1d3" d="M13.54 0H2.88C1.53 0 0 .9 0 2.23v6.62C0 10.18 1.53 11 2.88 11h10.66A2.21 2.21 0 0 0 16 9V2.23A2.3 2.3 0 0 0 13.64 0zM7 8V3l3.51 2.54z"/></symbol><symbol id="dribbble" viewBox="0 0 16 16"><path fill="#95e1d3" d="M15.84 6.4a7.91 7.91 0 0 0-.47-1.5 8.12 8.12 0 0 0-1.71-2.54 8.61 8.61 0 0 0-1.19-1 8 8 0 0 0-8.94 0 8.61 8.61 0 0 0-1.19 1A8.12 8.12 0 0 0 .63 4.9a7.91 7.91 0 0 0-.47 1.5 8.36 8.36 0 0 0 0 3.23 7.91 7.91 0 0 0 .47 1.5 8.12 8.12 0 0 0 1.71 2.54 8.61 8.61 0 0 0 1.19 1 8 8 0 0 0 8.94 0 8.61 8.61 0 0 0 1.19-1 8.12 8.12 0 0 0 1.71-2.54 7.91 7.91 0 0 0 .47-1.5 8.36 8.36 0 0 0 0-3.23zM14.83 8a16.18 16.18 0 0 0-4.76-.23c-.18-.45-.38-.9-.6-1.34a8.77 8.77 0 0 0 3.81-2.71A6.83 6.83 0 0 1 14.83 8zm-2.32-5.11a7.44 7.44 0 0 1-3.57 2.47 34 34 0 0 0-2.55-4 6.75 6.75 0 0 1 6.12 1.51zM6.36 1.38zm-1.28.46a38.72 38.72 0 0 1 2.54 3.93 25.84 25.84 0 0 1-6.31.84 6.86 6.86 0 0 1 3.77-4.77zM1.17 8v-.2a25.19 25.19 0 0 0 7-1c.2.38.39.77.56 1.16l-.27.08a10.84 10.84 0 0 0-5.56 4.51A6.77 6.77 0 0 1 1.17 8zM8 14.85a6.77 6.77 0 0 1-4.35-1.57l.15.12a9.23 9.23 0 0 1 5.36-4.27h.05a28.39 28.39 0 0 1 1.46 5.19 7 7 0 0 1-2.67.53zm3.82-1.17a30.63 30.63 0 0 0-1.33-4.88 9.9 9.9 0 0 1 4.26.3 6.82 6.82 0 0 1-2.93 4.58z"/></symbol><symbol id="twitter" viewBox="0 0 16 13"><path fill="#95e1d3" d="M10.88 0a3.34 3.34 0 0 1 2.6 1 5.66 5.66 0 0 0 1.68-.52c.13-.08.27-.15.41-.22A3.32 3.32 0 0 1 14.5 1.8a1.78 1.78 0 0 1-.36.25A6.33 6.33 0 0 0 16 1.56a5.44 5.44 0 0 1-1.11 1.28l-.52.41a9.33 9.33 0 0 1-.15 2.11 9.17 9.17 0 0 1-6.43 7.25 9.72 9.72 0 0 1-4.64.2 12.8 12.8 0 0 1-1.93-.63 10.11 10.11 0 0 1-.93-.48L0 11.52a5.27 5.27 0 0 0 1.05 0c.32-.05.64 0 .94-.1a7.38 7.38 0 0 0 2-.71 3.72 3.72 0 0 0 .89-.59 2.93 2.93 0 0 1-1-.17 3.27 3.27 0 0 1-2.08-2.1 3.14 3.14 0 0 0 1.46-.07 2.29 2.29 0 0 1-1.07-.43A3.16 3.16 0 0 1 .63 4.58l.37.16a3.2 3.2 0 0 0 .69.19.86.86 0 0 0 .45 0c-.16-.19-.43-.32-.6-.52a3.37 3.37 0 0 1-.74-3 3.82 3.82 0 0 1 .31-.8 2.52 2.52 0 0 0 .3.35 6.65 6.65 0 0 0 1 .93 9.73 9.73 0 0 0 4 1.94A6.13 6.13 0 0 0 7.89 4a3 3 0 0 1 0-1.54A3.22 3.22 0 0 1 9.76.29a3.65 3.65 0 0 1 .73-.23h.39z"/></symbol><symbol id="tumblr" viewBox="0 0 10 16.01"><path fill="#95e1d3" d="M10 15.14a9.29 9.29 0 0 1-1.85.67 7.62 7.62 0 0 1-1.79.2 4.76 4.76 0 0 1-1.71-.28 3.86 3.86 0 0 1-1.43-.79 3 3 0 0 1-.83-1.09 5 5 0 0 1-.23-1.68V6.56H0V4.29a5.49 5.49 0 0 0 1.8-.88A4.49 4.49 0 0 0 2.88 2a6.49 6.49 0 0 0 .55-2h2.26v3.7h3.69v2.86H5.69v4.1a7.15 7.15 0 0 0 .09 1.73 1.46 1.46 0 0 0 .61.69 2.22 2.22 0 0 0 1.21.32 4.3 4.3 0 0 0 2.4-.79v2.53z"/></symbol></svg>